<?xml version="1.0" standalone="no"?>
<!DOCTYPE svg PUBLIC "-//W3C//DTD SVG 20010904//EN"
 "http://www.w3.org/TR/2001/REC-SVG-20010904/DTD/svg10.dtd">
<svg version="1.0" xmlns="http://www.w3.org/2000/svg"
 width="225.000000pt" height="225.000000pt" viewBox="0 0 225.000000 225.000000"
 preserveAspectRatio="xMidYMid meet">
<metadata>
Created by potrace 1.16, written by Peter Selinger 2001-2019
</metadata>
<g transform="translate(0.000000,225.000000) scale(0.100000,-0.100000)"
fill="#000000" stroke="none">
<path d="M847 1280 c-38 -61 -72 -110 -77 -110 -4 0 -19 18 -34 40 -25 39 -46
52 -46 29 0 -6 14 -30 30 -54 17 -24 30 -46 30 -50 0 -3 -46 -73 -102 -155
-56 -82 -99 -153 -95 -157 11 -10 26 9 125 155 l90 133 33 -46 c53 -73 71 -55
19 20 -16 24 -30 46 -30 50 0 3 34 59 75 124 41 65 75 121 75 125 0 3 -6 6
-12 6 -7 -1 -44 -50 -81 -110z"/>
<path d="M90 1125 l0 -245 148 0 c142 0 172 6 172 32 0 4 -63 8 -140 8 l-140
0 0 205 0 205 293 0 c287 0 317 3 317 32 0 4 -146 8 -325 8 l-325 0 0 -245z"/>
<path d="M1057 1363 c-4 -3 -7 -12 -7 -20 0 -11 97 -13 540 -13 l540 0 0 -205
0 -205 -648 0 c-646 0 -672 -1 -672 -32 0 -4 304 -8 675 -8 l675 0 0 245 0
245 -548 0 c-302 0 -552 -3 -555 -7z"/>
<path d="M190 1135 c0 -96 3 -115 15 -115 12 0 15 16 15 82 l0 82 28 -34 29
-34 19 32 c10 18 22 32 26 32 4 0 8 -36 8 -80 0 -114 18 -99 22 18 5 147 -2
159 -46 92 -14 -22 -30 -40 -34 -40 -4 0 -18 18 -32 40 -41 67 -50 54 -50 -75z"/>
<path d="M476 1143 c-20 -59 -36 -111 -36 -116 0 -17 20 -5 32 21 10 21 21 28
49 30 32 3 38 0 49 -27 13 -31 30 -42 30 -18 0 26 -67 211 -77 214 -6 2 -27
-44 -47 -104z"/>
<path d="M1697 1243 c-3 -7 -2 -163 1 -205 1 -10 6 -18 12 -18 5 0 10 35 12
78 l3 77 44 -77 c25 -43 49 -78 53 -78 4 0 8 52 8 115 0 130 -17 159 -22 38
l-3 -78 -43 78 c-41 72 -55 88 -65 70z"/>
</g>
</svg>
